<?xml version="1.0" encoding="UTF-8"?>
<!DOCTYPE svg PUBLIC "-//W3C//DTD SVG 1.1//EN" "http://www.w3.org/Graphics/SVG/1.1/DTD/svg11.dtd">
<!-- Creator: CorelDRAW (Versão OEM) -->
<svg xmlns="http://www.w3.org/2000/svg" xml:space="preserve" width="648.227mm" height="151.713mm" version="1.1" style="shape-rendering:geometricPrecision; text-rendering:geometricPrecision; image-rendering:optimizeQuality; fill-rule:evenodd; clip-rule:evenodd"
viewBox="0 0 95078.98 22252.58"
 xmlns:xlink="http://www.w3.org/1999/xlink"
 xmlns:xodm="http://www.corel.com/coreldraw/odm/2003">
 <defs>
  <style type="text/css">
   <![CDATA[
    .fil0 {fill:#373435;fill-rule:nonzero}
   ]]>
  </style>
 </defs>
 <g id="Camada_x0020_1">
  <metadata id="CorelCorpID_0Corel-Layer"/>
  <path class="fil0" d="M-0 12272.51l5193.34 0c3290.08,0 4105.34,-806.57 5170.12,-3710.77l3101.5 -8561.74 -1497.07 0 -3092.8 8509.52c-629.57,1726.27 -1180.82,2422.58 -3298.77,2422.58l-5091.79 0 -484.51 1340.41zm15594.5 171.17l3812.31 0c2361.66,0 3873.24,-942.92 4775.55,-3423.54l722.42 -1972.89c911.02,-2477.7 -211.78,-4015.4 -2747.52,-4015.4l-3812.31 0c-2361.66,0 -3861.64,934.22 -4769.75,3414.84l-722.42 1972.89c-908.11,2480.62 197.29,4024.1 2741.73,4024.1zm322.04 -1247.55c-1645.04,0 -2323.94,-890.7 -1662.43,-2692.42l626.67 -1708.87c652.79,-1787.2 1621.83,-2515.42 3174.03,-2515.42l3771.7 0c1647.94,0 2329.75,882 1674.05,2675.01l-620.88 1708.86c-652.79,1795.91 -1630.53,2532.85 -3185.63,2532.85l-3777.51 0zm9142.01 1076.38l7293.87 0c2054.12,0 3327.79,-432.3 3948.68,-2196.29l92.83 -264.02c620.88,-1714.66 -145.06,-2793.96 -2123.76,-2811.36l-4433.19 -17.41c-1076.38,-17.41 -1340.39,-461.31 -1035.76,-1383.93l52.23 -162.47c295.93,-922.62 1128.61,-963.23 1961.28,-963.23l7067.57 0 458.4 -1270.77 -7111.09 0c-1781.4,0 -3104.4,365.56 -3699.17,1978.68l-58.02 179.88c-603.47,1656.64 0,2854.89 1940.97,2869.4l4441.89 17.4c1076.39,26.12 1502.88,475.81 1128.61,1497.07l-66.72 185.69c-365.57,1012.56 -1140.21,1070.58 -2268.82,1070.58l-7131.4 0 -458.4 1270.77zm16241.5 0l5289.07 0 461.31 -1270.77 -5283.28 0c-1691.46,0 -2257.22,-742.73 -1656.64,-2416.79l75.44 -211.8 9873.13 0 458.4 -1262.07c977.74,-2677.9 -264.02,-4082.14 -2753.33,-4082.14l-3530.89 0c-2364.57,0 -3867.43,931.33 -4766.85,3411.93l-661.49 1813.32c-908.11,2492.22 -75.44,4018.3 2495.12,4018.3zm-638.29 -5170.12l136.36 -380.08c646.99,-1755.28 1563.79,-2457.4 3147.9,-2457.4l3469.96 0c1682.76,0 2361.66,922.62 1836.52,2364.57l-171.17 472.91 -8419.58 0zm17613.81 5170.12c2529.93,0 3881.94,-586.06 4801.65,-3075.39l722.42 -1975.78c902.3,-2486.43 69.64,-4015.41 -2509.62,-4015.41l-7282.27 0 -4320.04 11901.15 1439.05 0 1029.97 -2834.58 6118.84 0zm243.7 -1270.77l-5895.44 0 2370.36 -6527.93 5837.42 0c1691.46,0 2263.03,757.24 1598.63,2561.85l-594.77 1650.85c-664.4,1804.61 -1462.27,2315.24 -3316.2,2315.24zm5788.1 1270.77l1439.05 0 2834.58 -7798.7 5776.49 0c1717.57,0 2141.17,322.04 1479.66,2141.17l-2059.92 5657.53 1439.05 0 2132.45 -5840.32c867.5,-2405.18 -110.24,-3229.15 -2576.35,-3229.15l-5732.97 0 1163.41 -3203.04 -1433.24 0 -4462.2 12272.51z"/>
  <path class="fil0" d="M51221.38 22252.58l8314.98 0 353.75 -961.34 -7241.29 0 2846.57 -7838.48 -1073.71 0 -3200.31 8799.82zm11935.62 0l3793.35 0 330.86 -911.4 -3789.18 0c-1213.12,0 -1618.89,-532.7 -1188.16,-1733.34l54.11 -151.9 7081.05 0 328.77 -905.16c701.24,-1920.6 -189.36,-2927.73 -1974.71,-2927.73l-2532.37 0c-1695.88,0 -2773.75,667.95 -3418.8,2447.06l-474.44 1300.51c-651.3,1787.43 -54.09,2881.95 1789.51,2881.95zm-457.77 -3708.04l97.79 -272.58c464.04,-1258.9 1121.57,-1762.47 2257.7,-1762.47l2488.67 0c1206.89,0 1693.79,661.71 1317.16,1695.88l-122.77 339.17 -6038.55 0zm7210.06 3708.04l1032.08 0 2037.13 -5593.26 4748.45 0 328.77 -911.41 -5784.7 0 -2361.74 6504.67zm9093.21 0l3793.35 0 330.86 -911.4 -3789.18 0c-1213.12,0 -1618.89,-532.7 -1188.16,-1733.34l54.11 -151.9 7081.05 0 328.77 -905.16c701.24,-1920.6 -189.36,-2927.73 -1974.71,-2927.73l-2532.37 0c-1695.88,0 -2773.75,667.95 -3418.8,2447.06l-474.44 1300.51c-651.3,1787.43 -54.09,2881.95 1789.51,2881.95zm-457.77 -3708.04l97.79 -272.58c464.04,-1258.9 1121.57,-1762.47 2257.7,-1762.47l2488.67 0c1206.89,0 1693.79,661.71 1317.16,1695.88l-122.77 339.17 -6038.55 0zm7008.22 3708.04l5231.19 0c1473.22,0 2386.72,-310.04 2832.01,-1575.19l66.59 -189.36c445.29,-1229.76 -104.05,-2003.84 -1523.17,-2016.32l-3179.51 -12.48c-771.98,-12.48 -961.34,-330.86 -742.85,-992.55l37.46 -116.53c212.24,-661.7 809.44,-690.83 1406.63,-690.83l5068.9 0 328.77 -911.41 -5100.11 0c-1277.63,0 -2226.49,262.18 -2653.05,1419.13l-41.63 129.02c-432.81,1188.14 0,2047.53 1392.08,2057.93l3185.75 12.5c771.98,18.72 1077.87,341.25 809.44,1073.71l-47.86 133.17c-262.18,726.2 -817.77,767.83 -1627.2,767.83l-5114.69 0 -328.76 911.4z"/>
 </g>
</svg>
